<?xml version="1.0" encoding="utf-8"?>
<!-- Generator: Adobe Illustrator 27.0.0, SVG Export Plug-In . SVG Version: 6.00 Build 0)  -->
<svg version="1.1" id="Layer_1" xmlns="http://www.w3.org/2000/svg" xmlns:xlink="http://www.w3.org/1999/xlink" x="0px" y="0px" viewBox="0 0 2560 2560" style="enable-background:new 0 0 2560 2560;" xml:space="preserve">
	<style type="text/css">
		.st0{fill:none;stroke:#ED1C24;stroke-width:6;stroke-miterlimit:10;}
	</style>
	<path class="st0" d="M2471.1,1098.7c0,690.6-561.3,1250.4-1253.8,1250.4c-623.2,0-1128.4-503.9-1128.4-1125.4
		c0-559.4,454.7-1012.8,1015.5-1012.8c504.8,0,914,408.1,914,911.6c0,453.1-368.3,820.4-822.6,820.4
		c-408.9,0-740.3-330.6-740.3-738.4c0-367,298.3-664.5,666.3-664.5c331.2,0,599.7,267.8,599.7,598.1c0,297.3-241.6,538.3-539.7,538.3
		c-268.3,0-485.7-216.9-485.7-484.4c0-240.8,195.7-436,437.2-436c217.3,0,393.4,175.7,393.4,392.4c0,195-158.5,353.2-354.1,353.2
		c-176,0-318.7-142.3-318.7-317.8c0-158,128.4-286.1,286.8-286.1c142.6,0,258.1,115.3,258.1,257.5c0,128-104,231.7-232.3,231.7
		c-115.5,0-209.1-93.4-209.1-208.5c0-103.7,84.3-187.7,188.2-187.7c93.5,0,169.4,75.6,169.4,168.9c0,84-68.2,152-152.4,152
		c-75.8,0-137.2-61.3-137.2-136.8c0-68,55.3-123.1,123.5-123.1c61.4,0,111.1,49.6,111.1,110.8c0,55.1-44.8,99.7-100,99.7
		c-49.7,0-90-40.2-90-89.8c0-44.6,36.3-80.8,81-80.8c40.3,0,72.9,32.6,72.9,72.7c0,36.1-29.4,65.4-65.6,65.4
		c-32.6,0-59.1-26.4-59.1-58.9"/>
</svg>
